
[color=red]-------------------------------------------------[/color]
[color=red]-------------------------------------------------[/color]
File Name    : Vampires Suck[2010]WPScR-LW
Type         : Movie
Format       : AVI
File Size    : 594 MB
Duration     : 01:16:30
Language     : English
Source       : DvD
Subtitles    : None
Genre        : Comedy
IMDB Link    : http://www.imdb.com/title/tt1666186/
Downloaded   : http://www.l33t.cz.cc
[color=red]-------------------------------------------------[/color]
[color=red]-------------------------------------------------[/color]
Format                           : MPEG-4 Visual
Format profile                   : Advanced Simple@L5
Format settings, BVOP            : Yes
Format settings, QPel            : No
Format settings, GMC             : No warppoints
Format settings, Matrix          : Default (H.263)
Muxing mode                      : Packed bitstream
Codec ID                         : XVID
Codec ID/Hint                    : XviD
Duration                         : 1h 16mn
Bit rate                         : 885 Kbps
Width                            : 720 pixels
Height                           : 290 pixels
Display aspect ratio             : 2.483
Frame rate                       : 23.976 fps
Resolution                       : 8 bits
Colorimetry                      : 4:2:0
Scan type                        : Progressive
Bits/(Pixel*Frame)               : 0.177
Stream size                      : 484 MiB (81%)
Writing library                  : XviD 1.2.0
[color=red]-------------------------------------------------[/color]
[color=red]-------------------------------------------------[/color]
Format                           : AC-3
Format/Info                      : Audio Coding 3
Codec ID                         : 2000
Duration                         : 1h 16mn
Bit rate mode                    : Constant
Bit rate                         : 192 Kbps
Channel(s)                       : 2 channels
Channel positions                : L R
Sampling rate                    : 48.0 KHz
Video delay                      : 24ms
Stream size                      : 105 MiB (18%)
Alignment                        : Split accross interleaves
Interleave, duration             : 42 ms (1.00 video frame)
Interleave, preload duration     : 500 ms
[color=red]-------------------------------------------------[/color]
[color=red]-------------------------------------------------[/color]
From the creators of Disaster Movie and Meet the 
Spartans comes a spoof of pop culture and teenage 
vampire movies starring Jenn Proske as Becca, a 
high schooler who must choose between two hunky 
boys who both have killer smiles. While surrounded 
by vampires, werewolves (wereChihuahuas, anyone?) 
and gossipy teens with their own romantic dilemmas, 
the neurotic Becca also copes with her overprotective 
father and the school's impending prom.

Cast: Jenn Proske, Matt Lanter

Director: Jason Friedberg
[color=red]-------------------------------------------------[/color]